Coordinates
version=1
nRows=12
nColumns=42
inDegrees=yes

Units are S.I. units (second, meters, Newtons, ...)
If the header above contains a line with 'inDegrees', this indicates whether rotational values are in degrees (yes) or radians (no).

endheader
time	pelvis_tilt	pelvis_list	pelvis_rotation	pelvis_tx	pelvis_ty	pelvis_tz	hip_flexion_r	hip_adduction_r	hip_rotation_r	knee_angle_r	knee_adduction_r	knee_angle_r_beta	ankle_angle_r	subtalar_angle_r	mtp_angle_r	hip_flexion_l	hip_adduction_l	hip_rotation_l	knee_angle_l	knee_adduction_l	knee_angle_l_beta	ankle_angle_l	subtalar_angle_l	mtp_angle_l	lumbar_extension	lumbar_bending	lumbar_rotation	arm_flex_r	arm_add_r	arm_rot_r	elbow_flex_r	pro_sup_r	wrist_flex_r	wrist_dev_r	arm_flex_l	arm_add_l	arm_rot_l	elbow_flex_l	pro_sup_l	wrist_flex_l	wrist_dev_l
      2.90000000	      8.27386109	      6.64922862	     20.63050858	      0.67105453	      0.90641957	      0.50788301	     -5.85159723	      0.16199544	    -26.67144244	     20.13735553	      0.56999888	      0.35146316	     21.93213292	      5.91825385	     -7.53262981	     22.96901186	     -8.63274643	      3.84033435	     25.89036685	      6.72496981	      0.45187215	      6.36244072	      5.49238829	     -7.53262981	    -26.04037077	     -7.44066497	     -5.20844650	     -6.90745980	    -27.10327846	    -48.32783325	     63.18830493	     90.00000001	      0.00000000	      0.00000000	      4.78884457	    -20.35633490	     11.64322492	     85.58125224	     90.00000001	      0.00000000	      0.00000000
      2.91000000	      8.73651798	      6.82530987	     20.20164964	      0.67394238	      0.90656763	      0.50784048	     -6.69176284	      0.11939371	    -26.60238279	     19.96457712	      0.64554063	      0.34844760	     22.39511424	      6.23033211	     -7.53195187	     23.38011444	     -8.33562212	      3.59737294	     26.29079326	      6.73432975	      0.45886091	      6.36442689	      5.56238368	     -7.53195187	    -26.30192554	     -7.52368238	     -4.99136001	     -6.91537670	    -27.30651457	    -47.15136134	     64.45393295	     90.00000001	      0.00000000	      0.00000000	      4.27540188	    -20.25134621	     11.22296650	     85.84340506	     90.00000001	      0.00000000	      0.00000000
      2.92000000	      8.94669986	      6.85226023	     19.67204970	      0.67657061	      0.90638144	      0.50797383	     -6.96520369	      0.08315745	    -26.41881941	     20.18548938	      0.61455634	      0.35230325	     22.28748124	      6.28049608	     -7.53158840	     23.96251101	     -8.06077739	      3.71280412	     26.43730531	      6.77703625	      0.46141802	      6.30330482	      5.67180463	     -7.53158840	    -26.26813836	     -7.62663185	     -4.46162132	     -6.59755362	    -27.41328538	    -46.83324287	     64.73995328	     90.00000001	      0.00000000	      0.00000000	      3.96941925	    -20.10675918	     11.25791907	     85.79229043	     90.00000001	      0.00000000	      0.00000000
      2.93000000	      9.43451490	      6.98913681	     19.18782569	      0.67941254	      0.90646054	      0.50789771	     -7.75272984	      0.05455745	    -26.27739600	     20.11573145	      0.66851031	      0.35108575	     22.82301882	      6.66054781	     -7.53088857	     24.28836760	     -7.78881186	      3.65931739	     26.85938722	      6.84447805	      0.46878474	      6.37762739	      5.69377462	     -7.53088857	    -26.56974080	     -7.64962022	     -4.21846111	     -6.73441172	    -27.63307771	    -45.47351502	     66.18291066	     90.00000001	      0.00000000	      0.00000000	      3.37847453	    -19.99386827	     10.85099444	     86.15108159	     90.00000001	      0.00000000	      0.00000000
      2.94000000	      9.64955022	      7.01871879	     18.61749178	      0.68212530	      0.90622844	      0.50800412	     -8.01274519	      0.00536438	    -26.04709782	     20.36201862	      0.59633211	      0.35538427	     22.73049704	      6.72401609	     -7.53049752	     24.79202238	     -7.51090452	      3.83840326	     27.07721298	      6.91920024	      0.47258652	      6.30996697	      5.80330400	     -7.53049752	    -26.52355790	     -7.75571153	     -3.70890700	     -6.40913396	    -27.67955805	    -45.08173741	     66.54552443	     90.00000001	      0.00000000	      0.00000000	      3.00505412	    -19.85822214	     10.89264915	     86.06737292	     90.00000001	      0.00000000	      0.00000000
      2.95000000	     10.08940782	      7.09928270	     18.11540994	      0.68484901	      0.90612838	      0.50799299	     -8.64643504	      0.01904673	    -25.83706008	     20.39302207	      0.56609434	      0.35592538	     23.29504396	      6.97811096	     -7.52986849	     25.10367121	     -7.29860769	      4.07249112	     27.47006500	      7.16607103	      0.47944308	      6.35939037	      5.70735755	     -7.52986849	    -26.77862670	     -7.73966134	     -3.48653890	     -6.48988247	    -27.83360348	    -43.76550671	     68.05407882	     90.00000001	      0.00000000	      0.00000000	      2.39129717	    -19.79989851	     10.62108485	     86.31246209	     90.00000001	      0.00000000	      0.00000000
      2.96000000	     10.41576962	      7.09511274	     17.61186238	      0.68754836	      0.90588826	      0.50795070	     -9.07760877	      0.05902567	    -25.60267485	     20.53365131	      0.51452413	      0.35837982	     23.51867134	      7.23781458	     -7.52919654	     25.45503675	     -7.07422458	      4.43914657	     27.71884509	      7.34389190	      0.48378511	      6.33041800	      5.58930569	     -7.52919654	    -26.86353283	     -7.69584286	     -3.13934839	     -6.48045048	    -27.95410425	    -42.72068914	     69.02268729	     90.00000001	      0.00000000	      0.00000000	      1.88089853	    -19.64588573	     10.50239296	     86.38593747	     90.00000001	      0.00000000	      0.00000000
      2.97000000	     10.60734590	      7.06996421	     17.04285867	      0.69022877	      0.90548725	      0.50796004	     -9.27274178	      0.03237845	    -25.33113525	     20.82500486	      0.43617078	      0.36346490	     23.41534498	      7.27592753	     -7.52881396	     25.88249544	     -6.82014377	      4.66352603	     27.93783846	      7.40323642	      0.48760727	      6.24207105	      5.67046226	     -7.52881396	    -26.78603952	     -7.72576640	     -2.65196717	     -6.17046160	    -27.89029529	    -42.31489064	     69.37891835	     90.00000001	      0.00000000	      0.00000000	      1.46331909	    -19.47639481	     10.59497685	     86.26494757	     90.00000001	      0.00000000	      0.00000000
      2.98000000	     11.00070542	      6.98357496	     16.65724644	      0.69283695	      0.90517149	      0.50775808	     -9.80547547	      0.22435231	    -25.03765017	     20.84902479	      0.39871154	      0.36388413	     24.00686008	      7.44455661	     -7.52810732	     26.13810647	     -6.69238678	      5.35639259	     28.17280943	      7.78483162	      0.49170828	      6.18607322	      5.22033089	     -7.52810732	    -26.96657735	     -7.49975082	     -2.48622773	     -6.43959203	    -28.05167970	    -40.75866607	     71.00496823	     90.00000001	      0.00000000	      0.00000000	      0.86765153	    -19.33509271	     10.44790896	     86.41445552	     90.00000001	      0.00000000	      0.00000000
      2.99000000	     11.14901413	      6.92341529	     16.13149979	      0.69558181	      0.90464581	      0.50770981	     -9.96018809	      0.21933849	    -24.78188306	     21.13952139	      0.33109734	      0.36895425	     23.89047590	      7.46354359	     -7.52773915	     26.51684895	     -6.46533837	      5.52986305	     28.36337689	      7.84906046	      0.49503431	      6.09631907	      5.28424317	     -7.52773915	    -26.83999595	     -7.48613142	     -2.04487728	     -6.09633543	    -27.91095593	    -40.33978419	     71.35879789	     90.00000001	      0.00000000	      0.00000000	      0.42817472	    -19.18144516	     10.57295751	     86.23042568	     90.00000001	      0.00000000	      0.00000000
      3.00000000	     11.42526216	      6.83573289	     15.77534211	      0.69833144	      0.90418174	      0.50754834	    -10.34638034	      0.40192057	    -24.48350171	     21.21680048	      0.22058269	      0.37030303	     24.31984796	      7.47867358	     -7.52734976	     26.74273013	     -6.34980916	      5.96393172	     28.50019880	      8.17466371	      0.49742231	      6.00340064	      5.06734076	     -7.52734976	    -26.86930821	     -7.28899872	     -1.99016149	     -5.91127650	    -27.80678034	    -39.09625601	     72.74810768	     90.00000001	      0.00000000	      0.00000000	     -0.13425714	    -19.17723912	     10.66453989	     86.00504615	     90.00000001	      0.00000000	      0.00000000
      3.01000000	     11.66561173	      6.65010989	     15.43280661	      0.70114506	      0.90361624	      0.50715304	    -10.73662402	      0.60615728	    -24.24822000	     21.20026882	      0.23961253	      0.37001449	     24.63467518	      7.52776217	     -7.52683833	     26.95990947	     -6.22701269	      6.55762806	     28.58498395	      8.39367327	      0.49890209	      5.87908356	      4.62583646	     -7.52683833	    -26.84938816	     -7.00082412	     -1.71659418	     -6.14015248	    -27.95566616	    -37.66884200	     73.86934875	     90.00000001	      0.00000000	      0.00000000	     -0.67442414	    -18.96709257	     10.66521228	     85.98847918	     90.00000001	      0.00000000	      0.00000000
